<?xml version="1.0" encoding="UTF-8"?>
<svg id="Capa_2" data-name="Capa 2" xmlns="http://www.w3.org/2000/svg" viewBox="0 0 1213.979 396.012">
  <g id="Capa_1-2" data-name="Capa 1">
    <g>
      <g>
        <path d="M1213.979,194.826c0,3.38-.172,6.622-.519,9.726-.067.448-.104.898-.172,1.346-4.278,26.695-23.558,48.39-48.944,56.081-.825.243-1.654.483-2.482.69-.69.172-1.344.345-2.068.482-.967.207-1.896.414-2.829.588-1.415.241-2.792.482-4.173.655-1.31.172-2.621.31-3.968.379-.549.069-1.135.103-1.687.103-1.071.071-2.105.104-3.173.104h-.138l-83.814-.967c-10.314-.103-18.903,7.451-20.661,17.626-8.555,49.631-52.737,61.498-76.227,61.498,0,0-522.743.172-563.754.172-21.626,0-38.076-12.865-48.804-31.456-7.932-13.727-27.695-13.348-35.732.345-4.485,7.658-9.554,14.969-15.176,21.798-24.041,29.422-57.946,50.771-97.196,58.67-.138.034-.276.069-.448.103-10.864,2.139-21.971,3.244-33.043,3.244C75.809,396.012,0,320.2,0,227.04c0-59.359,30.904-113.854,81.259-144.448C129.444-2.394,240.16-23.95,310.762,27.993c29.455,21.695,48.978,54.013,56.634,89.572,2.139,9.797,11.21,16.797,21.213,16.04,3.345-.243,6.829-.243,10.45.103,18.97,1.76,32.526,12.003,41.63,19.625,3.692,3.139,8.417,4.795,13.279,4.795,87.33-.035,123.341-.517,212.327-.552,6.726,0,12.9-3.38,16.867-8.795,5.724-7.76,15.071-15.073,38.457-15.073,13.52,0,21.661.724,33.422.483,4.347-.104,8.554-1.553,12.038-4.173,9.76-7.346,19.396-22.488,64.497-22.488,51.632,0,72.983,21.833,80.02,38.216,3.277,7.553,10.728,12.382,18.936,12.382h95.022c8.175,0,15.487-4.864,18.899-12.313,5.659-12.383,18.626-21.316,26.768-21.316h72.706c37.078.034,67.433,28.731,70.019,65.154.034.034.034.103,0,.172.034,1.622.034,3.311.034,5.002Z" fill="#fff" stroke-width="0"/>
        <g>
          <g>
            <path d="M196.372,358.142c-.07.014-.14.028-.209.042.07-.014.14-.028.209-.042Z" fill="#0080c9" stroke-width="0"/>
            <path d="M209.046,354.932c-.099.03-.198.061-.297.091.099-.03.198-.061.297-.091Z" fill="#0080c9" stroke-width="0"/>
            <path d="M76.583,323.485c-.045-.044-.09-.087-.136-.131.045.044.09.087.136.131Z" fill="#0080c9" stroke-width="0"/>
            <path d="M162.903,360.645c.664.031,1.329.06,1.996.081.564.019,1.128.039,1.694.051,1.358.028,2.718.044,4.085.034.061,0,.121-.003.181-.004,1.461-.013,2.914-.06,4.364-.117.656-.027,1.312-.054,1.966-.09.532-.028,1.061-.07,1.591-.103,11.895-.802,23.361-3.144,34.202-6.833.634-21.412,5.737-76.971,40.186-116.15,13.944-15.857,28.761-27.47,41.834-37.715,14.219-11.144,26.499-20.768,34.862-33.192,9.009-13.384,10.653-29.454,4.291-41.937-3.755-7.367-9.778-12.672-17.198-15.384,1.67-5.089,2.596-11.668.672-19.075-2.376-9.141-7.955-16.182-16.134-20.365-6.968-3.562-15.353-4.8-24.484-3.73-1.955-7.316-6.531-13.482-13.268-17.624-9.214-5.665-21.421-7.116-34.509-4.324-40.234-18.388-93.423,12.87-132.64,78.082-40.776,67.802-47.085,129.524-45.893,167.077,21.649,40.71,63.573,68.937,112.203,71.317Z" fill="#0080c9" stroke-width="0"/>
            <path d="M324.692,129.492c-3.614-7.092-10.436-11.328-18.72-11.625-19.658-.69-35.321,19.18-35.475,19.382-1.795,2.314-5.131,2.744-7.446.954-2.319-1.79-2.753-5.116-.968-7.437.768-.997,19.061-24.459,44.268-23.513.015,0,.03.003.045.003,1.424-3.687,2.427-8.702.953-14.375-1.59-6.122-5.287-10.818-10.69-13.58-8.239-4.212-20.154-3.832-32.692,1.049-23.424,9.116-36.395,26.119-36.523,26.289-1.761,2.342-5.087,2.82-7.43,1.065-2.345-1.754-2.829-5.072-1.08-7.42.592-.794,14.797-19.564,41.181-29.831,2.181-.849,4.342-1.571,6.481-2.191-1.338-4.447-4.184-8.121-8.417-10.723-8.651-5.318-21.915-5.482-35.477-.432-20.661,7.688-35.741,26.735-35.891,26.926-1.048,1.338-2.61,2.039-4.188,2.039-1.143,0-2.293-.368-3.264-1.126-2.309-1.804-2.723-5.135-.921-7.447.616-.791,13.973-17.671,33.838-27.412-33.339-5.081-74.462,24.228-106.581,77.637-9.275,15.422-16.685,30.558-22.592,45.164,6.009,12.424,26.804,21.934,84.703,36.695,43.106,10.989,56.412,30.634,59.733,45.952,4.892-8.673,10.704-17.133,17.653-25.035,14.593-16.596,29.823-28.532,43.258-39.062,13.51-10.587,25.177-19.731,32.602-30.763,6.857-10.186,8.251-22.135,3.639-31.184Z" fill="#fff" stroke-width="0"/>
            <path d="M163.558,360.681c.418.018.838.028,1.257.042.724.025,1.448.052,2.176.066,1.224.022,2.452.031,3.684.022.189-.001.376-.009.565-.011,1.038-.012,2.073-.034,3.105-.069.775-.027,1.546-.066,2.317-.106.385-.019.77-.036,1.153-.059,8.377-.505,16.543-1.782,24.434-3.748.101-16.305,2.636-61.122,25.291-101.282-3.322-15.318-16.627-34.963-59.733-45.952-57.899-14.761-78.694-24.271-84.703-36.695-24.156,59.737-23.034,110.544-20.279,135.271,23.477,30.548,59.751,50.714,100.733,52.521Z" fill="#f59c00" stroke-width="0"/>
            <path d="M253.167,237.514c-34.449,39.179-39.552,94.738-40.186,116.15-1.302.443-2.615.864-3.935,1.269,55.47-16.976,95.616-68.785,95.14-129.756-.08-10.252-1.31-20.226-3.556-29.804-1.839,1.456-3.714,2.927-5.628,4.427-13.073,10.245-27.89,21.858-41.834,37.715Z" fill="#b2d9ef" stroke-width="0"/>
            <path d="M96.593,122.25c3.08-5.122,6.255-10.008,9.494-14.704-42.631,22.862-71.474,67.997-71.071,119.73.175,22.429,5.834,43.529,15.683,62.05-1.192-37.553,5.117-99.275,45.893-167.077Z" fill="#b2d9ef" stroke-width="0"/>
          </g>
          <g>
            <path d="M685.499,280.796c0,1.08-.43,2.15-1.08,3.44-10.67,16.37-27.71,24.65-48.19,24.1-32.92-.88-57.76-24.91-57.99-56.48.23-31.58,25.07-55.6,57.99-56.48,20.48-.55,37.52,7.72,48.19,24.1.65,1.28,1.08,2.36,1.08,3.43,0,1.93-1.29,3.65-3.44,4.94l-18.47,12.89c-1.28.86-2.79,1.07-3.65,1.07-2.79,0-4.33-1.79-5.8-3.46-4.24-5.28-10.31-8.4-16.84-8.4-12.46,0-21.69,9.88-21.69,21.91s9.23,21.9,21.69,21.9c6.53,0,12.6-3.12,16.84-8.39,1.47-1.68,3.01-3.47,5.8-3.47.86,0,2.37.22,3.65,1.08l18.47,12.88c2.15,1.29,3.44,3.01,3.44,4.94Z" fill="#0080c9" stroke-width="0"/>
            <path d="M539.149,198.591h26.845c2.792,0,4.938,2.15,4.938,4.94v96.427c0,2.79-2.146,4.94-4.938,4.94h-26.845c-2.792,0-4.94-2.15-4.94-4.94v-3.221c-4.51,6.658-14.818,11.382-27.489,11.382-27.059,0-53.044-21.69-53.044-56.696s26.2-56.053,53.259-56.053c12.669,0,22.763,4.724,27.273,11.382v-3.221c0-2.79,2.362-4.94,4.94-4.94ZM512.52,229.945c-12.026,0-21.476,9.88-21.476,21.906s9.45,21.906,21.476,21.906,21.476-9.88,21.476-21.906-9.45-21.906-21.476-21.906Z" fill="#0080c9" stroke-width="0"/>
            <path d="M709.591,230.376h-13.099c-2.794,0-4.94-2.362-4.94-5.156v-21.69c0-2.79,2.146-4.94,4.94-4.94h13.099v-26.198c0-2.794,2.362-4.94,5.154-4.94h27.059c2.794,0,4.94,2.146,4.94,4.94v26.198h29.851c2.792,0,5.156,2.15,5.156,4.94v21.69c0,2.794-2.364,5.156-5.156,5.156h-29.851v31.785c0,9.664,6.443,9.876,8.377,9.876s4.508-.212,7.945-2.574c2.148-1.507,3.435-2.15,5.154-2.15,1.073,0,3.221.216,4.724,2.362l11.812,16.538c1.075,1.503,1.719,3.221,1.719,4.508,0,1.503-.859,3.221-2.148,4.512-7.732,8.589-23.193,11.81-34.575,11.81-19.544,0-40.16-9.664-40.16-41.018v-35.65Z" fill="#0080c9" stroke-width="0"/>
            <path d="M378.362,230.376h-13.099c-2.794,0-4.94-2.362-4.94-5.156v-21.69c0-2.79,2.146-4.94,4.94-4.94h13.099v-26.198c0-2.794,2.362-4.94,5.154-4.94h27.059c2.794,0,4.94,2.146,4.94,4.94v26.198h29.851c2.792,0,5.156,2.15,5.156,4.94v21.69c0,2.794-2.364,5.156-5.156,5.156h-29.851v31.785c0,9.664,6.443,9.876,8.377,9.876s4.508-.212,7.945-2.574c2.148-1.507,3.435-2.15,5.154-2.15,1.073,0,3.221.216,4.724,2.362l11.812,16.538c1.075,1.503,1.719,3.221,1.719,4.508,0,1.503-.859,3.221-2.148,4.512-7.732,8.589-23.193,11.81-34.575,11.81-19.544,0-40.16-9.664-40.16-41.018v-35.65Z" fill="#0080c9" stroke-width="0"/>
            <path d="M813.816,145.763c12.242,0,22.335,10.092,22.335,22.333s-10.094,22.333-22.335,22.333-22.335-10.092-22.335-22.333,10.094-22.333,22.335-22.333Z" fill="#0080c9" stroke-width="0"/>
            <path d="M827.344,304.898h-27.059c-2.792,0-5.154-2.362-5.154-5.156v-96.211c0-2.79,2.362-4.94,5.154-4.94h27.059c2.792,0,4.94,2.15,4.94,4.94v96.211c0,2.794-2.148,5.156-4.94,5.156Z" fill="#0080c9" stroke-width="0"/>
            <path d="M843.668,159.72c0-2.79,2.362-5.152,5.154-5.152h27.059c2.792,0,4.94,2.362,4.94,5.152v109.528c0,2.146,1.719,4.296,4.081,4.296h7.302c2.362,0,4.724,1.071,4.724,4.724v21.69c0,5.799-4.294,6.443-6.872,6.443h-16.536c-23.838,0-29.851-16.75-29.851-35.65v-111.031Z" fill="#0080c9" stroke-width="0"/>
            <path d="M972.402,271.44c1.816-1.828,3.142-4.131,5.737-4.131,1.254,0,2.263.317,3.542,1.075l18.255,11.379c2.148,1.075,3.435,2.794,3.435,4.728,0,1.071-.43,2.146-1.073,3.433-10.077,16.614-30.209,20.195-45.107,20.195-35.007,0-56.91-24.699-56.91-55.621,0-31.785,23.408-57.128,56.265-57.128,33.932,0,53.261,27.061,53.261,53.047v4.508c0,3.006-1.075,6.227-5.799,6.227h-66.36c.644,9.664,8.165,17.09,19.757,17.397,7.757.206,12.574-2.591,14.998-5.109ZM938.506,238.106h35.22c-1.503-8.589-9.45-13.313-17.611-13.313s-16.107,4.724-17.609,13.313Z" fill="#0080c9" stroke-width="0"/>
          </g>
        </g>
      </g>
      <g>
        <path d="M1076.686,202.83v-42.763c0-1.342,1.133-2.478,2.582-2.478h13.426c1.446,0,2.582,1.136,2.582,2.478v42.04c0,21.277-13.84,29.333-30.779,29.333s-30.779-8.056-30.779-29.333v-.827c0-1.342,1.136-2.478,2.582-2.478h13.426c1.446,0,2.582,1.136,2.582,2.478v1.55c0,6.92,4.132,11.567,12.189,11.567s12.189-4.647,12.189-11.567Z" fill="#f59c00" stroke-width="0"/>
        <path d="M1115.111,229.89c-1.446,0-2.582-1.032-2.582-2.478v-67.345c0-1.136.827-2.478,2.582-2.478h33.052c15.494,0,25.409,10.844,25.409,22.518,0,6.506-3.305,14.976-11.775,19.519l14.976,26.754c.309.514.518,1.133.518,1.651,0,1.032-.726,1.859-2.172,1.859h-14.976c-2.273,0-3.409-.518-4.543-2.687l-12.189-22.827h-12.293v22.931c0,1.446-1.136,2.582-2.582,2.582h-13.426ZM1131.119,174.32v14.667h14.357c4.647,0,8.574-2.683,8.574-7.538s-3.927-7.128-8.366-7.128h-14.566Z" fill="#f59c00" stroke-width="0"/>
      </g>
    </g>
  </g>
</svg>